<svg xmlns="http://www.w3.org/2000/svg" version="1.1" xmlns:xlink="http://www.w3.org/1999/xlink" width="24" height="24" x="0" y="0" viewBox="0 0 512 512" style="enable-background:new 0 0 512 512" xml:space="preserve"><g><path d="M227.253 231.555C256.9 208.699 276 172.83 276 132.5c0-69.036-55.964-125-125-125l-.802.003-53.713 23.653L59 183.5l118.229 66.667 50.024-18.612z" style="" fill="#FFE54E" data-original="#ffe54e"></path><path d="M107.877 108.75c0-41.695 16.689-78.609 42.322-101.247C81.532 7.934 26 63.732 26 132.5c0 69.036 55.964 125 125 125 28.706 0 55.151-9.677 76.253-25.945a83.974 83.974 0 0 1-17.697 1.883c-56.156 0-101.679-55.825-101.679-124.688z" style="" fill="#FFDB2F" data-original="#ffdb2f"></path><path d="M172.723 225.004C214.722 215.18 246 177.493 246 132.5c0-52.467-42.533-95-95-95a95.053 95.053 0 0 0-27.029 3.9L85.613 82.647l52.985 142.357h34.125z" style="" fill="#FECC29" data-original="#fecc29"></path><path d="M107.877 108.75c0-24.809 5.909-47.926 16.095-67.35C84.671 53.043 56 89.423 56 132.5c0 52.467 42.533 95 95 95 7.474 0 14.746-.864 21.723-2.496-37.949-18.093-64.846-63.321-64.846-116.254z" style="" fill="#FFBD1C" data-original="#ffbd1c"></path><path d="M119.037 436.079 151 442.167l105-20c11.046 0 20-8.954 20-20v-42.333c0-11.046-8.954-20-20-20l-105-20-31.963 6.088L46 381l73.037 55.079z" style="" fill="#FECC29" data-original="#fecc29"></path><path d="M119.037 325.921 46 339.833c-11.046 0-20 8.954-20 20v42.333c0 11.046 8.954 20 20 20l73.037 13.912c-11.334-14.201-18.321-33.639-18.321-55.079s6.987-40.877 18.321-55.078z" style="" fill="#FFBD1C" data-original="#ffbd1c"></path><path d="M110.182 339.833H256c11.046 0 20-8.954 20-20V277.5c0-11.046-8.954-20-20-20H100.007L46 298.667l64.182 41.166z" style="" fill="#FFE54E" data-original="#ffe54e"></path><path d="M100.007 257.5H46c-11.046 0-20 8.954-20 20v42.333c0 11.046 8.954 20 20 20h64.182c-9.602-13.763-15.4-31.634-15.4-51.166-.001-11.071 1.863-21.609 5.225-31.167z" style="" fill="#FFDB2F" data-original="#ffdb2f"></path><path d="M120.357 504.5H256c11.046 0 20-8.954 20-20v-42.333c0-11.046-8.954-20-20-20H110.181L46 463.333l74.357 41.167z" style="" fill="#FFE54E" data-original="#ffe54e"></path><path d="M110.181 422.167H46c-11.046 0-20 8.954-20 20V484.5c0 11.046 8.954 20 20 20h74.357c-9.602-13.763-15.401-31.635-15.401-51.167 0-11.071 1.863-21.608 5.225-31.166z" style="" fill="#FFDB2F" data-original="#ffdb2f"></path><path d="m429.168 486.411 54.245-60.272c5.792-6.435 1.225-16.69-7.433-16.69h-27.546V267.5c0-5.523-4.477-10-10-10h-25.59l-34.41 19.5v180l50.734 29.411z" style="" fill="#FD7A6E" data-original="#fd7a6e"></path><path d="M412.844 257.5h-34.41c-5.523 0-10 4.477-10 10v141.948h-27.546c-8.658 0-13.225 10.254-7.433 16.69l67.546 75.052c3.972 4.414 10.893 4.414 14.866 0l13.301-14.779c-25.904-28.815-42.171-70.421-42.171-116.687-.001-35.581 9.621-85.854 25.847-112.224zM438.434 174.167h-60c-5.523 0-10 4.477-10 10v32c0 5.523 4.477 10 10 10h60c5.523 0 10-4.477 10-10v-32c0-5.523-4.477-10-10-10zM438.434 90.833h-60c-5.523 0-10 4.477-10 10v32c0 5.523 4.477 10 10 10h60c5.523 0 10-4.477 10-10v-32c0-5.523-4.477-10-10-10zM438.434 7.5h-60c-5.523 0-10 4.477-10 10v32c0 5.523 4.477 10 10 10h60c5.523 0 10-4.477 10-10v-32c0-5.523-4.477-10-10-10z" style="" fill="#FB695B" data-original="#fb695b"></path><path d="M38.343 78.272C30.433 94.675 26 113.07 26 132.5c0 69.036 55.964 125 125 125s125-55.964 125-125-55.964-125-125-125c-37.03 0-70.299 16.102-93.188 41.687" style="stroke-linecap: round; stroke-linejoin: round; stroke-miterlimit: 10;" fill="none" stroke="#000000" stroke-width="15px" stroke-linecap="round" stroke-linejoin="round" stroke-miterlimit="10" data-original="#000000"></path><circle cx="151" cy="132.5" r="95" style="stroke-linecap: round; stroke-linejoin: round; stroke-miterlimit: 10;" fill="none" stroke="#000000" stroke-width="15px" stroke-linecap="round" stroke-linejoin="round" stroke-miterlimit="10" data-original="#000000"></circle><path d="M126 157.5c0 13.807 11.193 25 25 25s25-11.193 25-25-11.193-25-25-25-25-11.193-25-25 11.193-25 25-25 25 11.193 25 25M151 82.5v-15M151 197.5v-15M256 339.833H46c-11.046 0-20-8.954-20-20V277.5c0-11.046 8.954-20 20-20h210c11.046 0 20 8.954 20 20v42.333c0 11.046-8.954 20-20 20zM256 339.833c11.046 0 20 8.954 20 20v42.333c0 11.046-8.954 20-20 20M46 422.167c-11.046 0-20-8.954-20-20v-42.333c0-11.046 8.954-20 20-20M256 504.5H46c-11.046 0-20-8.954-20-20v-42.333c0-11.046 8.954-20 20-20h210c11.046 0 20 8.954 20 20V484.5c0 11.046-8.954 20-20 20zM448.434 327.5v-60c0-5.523-4.477-10-10-10h-60c-5.523 0-10 4.477-10 10v141.948h-27.546c-8.658 0-13.225 10.254-7.433 16.69l67.546 75.052c3.972 4.414 10.893 4.414 14.866 0l67.546-75.052c5.792-6.435 1.225-16.69-7.433-16.69h-27.546V362.5M438.434 174.167h-60c-5.523 0-10 4.477-10 10v32c0 5.523 4.477 10 10 10h60c5.523 0 10-4.477 10-10v-32c0-5.523-4.477-10-10-10zM438.434 90.833h-60c-5.523 0-10 4.477-10 10v32c0 5.523 4.477 10 10 10h60c5.523 0 10-4.477 10-10v-32c0-5.523-4.477-10-10-10zM438.434 7.5h-60c-5.523 0-10 4.477-10 10v32c0 5.523 4.477 10 10 10h60c5.523 0 10-4.477 10-10v-32c0-5.523-4.477-10-10-10zM87.704 372.387l-.01 11.877M214.305 372.511l-.009 11.876M134.301 389.584l33.378.029" style="stroke-linecap: round; stroke-linejoin: round; stroke-miterlimit: 10;" fill="none" stroke="#000000" stroke-width="15px" stroke-linecap="round" stroke-linejoin="round" stroke-miterlimit="10" data-original="#000000"></path></g></svg>